<svg xmlns="http://www.w3.org/2000/svg" viewBox="0 142 19 20" width="19" height="20">
  <path d="M15.873 158.605C16.559 157.827 17.074 156.778 17.192 155.543C17.416 153.395 16.889 151.876 16.401 150.704C15.583 148.889 13.854 145.889 9.698 143.704C9.645 143.679 9.592 143.679 9.54 143.679L9.487 143.679C9.434 143.679 9.395 143.704 9.342 143.716C7.6 144.593 4.117 146.864 2.507 150.519C2.23 151.186 2.019 151.889 1.979 152.123L1.926 152.358C1.807 152.926 1.728 153.506 1.728 153.975L1.728 154.519C1.754 155.778 2.071 156.963 2.85 158.086C3.431 158.888 4.565 160.234 7.019 160.296L12.007 160.296C13.656 160.296 14.936 159.666 15.873 158.605ZM16.651 154.222C16.651 154.864 16.585 155.555 16.48 156.086C16.203 157.086 15.636 158.148 14.448 158.988C13.973 159.334 13.115 159.753 12.086 159.753L6.927 159.753C5.357 159.753 4.077 158.889 3.312 157.741C2.731 156.901 2.375 155.852 2.375 154.519C2.375 153.371 2.652 152.284 3.048 151.247C4.631 147.445 7.824 145.346 9.474 144.247C9.5 144.222 9.527 144.247 9.54 144.259C11.348 145.197 13.459 146.852 14.883 149.025C15.754 150.358 16.625 152.198 16.651 154.222Z" fill="#1E1F1D" stroke="#000000" stroke-width="0.5" />
  <path d="M7.462 150.136c-0.531 0-0.991 0.415-0.991 0.876l0.017 1.309c0.035 0.431 0.443 0.815 0.974 0.815s0.974-0.369 1.009-0.784v-1.34c0-0.461-0.46-0.877-1.009-0.876z" fill="#1E1F1D" />
  <path d="M11.525 150.136C11.02 150.136 10.567 150.551 10.516 150.982L10.516 152.367C10.603 152.782 10.985 153.136 11.525 153.136C12.047 153.136 12.465 152.767 12.516 152.352L12.516 150.982C12.516 150.536 12.098 150.136 11.525 150.136Z" fill="#1E1F1D" />
</svg>